# Blender v2.78 (sub 0) OBJ File: 'circle.blend'
# www.blender.org
mtllib circle.mtl
o Circle
v -0.369784 1.620165 -0.000000
v 0.620166 1.369784 0.000000
v 0.369785 1.620165 0.000000
v 0.000001 1.989949 0.000000
v -0.620165 1.369785 -0.000000
v 0.500762 1.250381 0.000000
v -0.119403 1.870546 -0.000000
v 0.250381 1.500762 0.000000
v -0.250381 1.500762 -0.000000
v 0.119404 1.870546 0.000000
v -0.500762 1.250381 -0.000000
v 0.000001 1.751143 0.000000
v 1.000000 -0.000000 0.000000
v 0.980785 -0.195091 0.000000
v 0.923879 -0.382684 0.000000
v 0.831469 -0.555570 0.000000
v 0.707107 -0.707107 0.000000
v 0.555570 -0.831470 0.000000
v 0.382683 -0.923880 0.000000
v 0.195090 -0.980785 0.000000
v -0.000000 -1.000000 0.000000
v -0.195091 -0.980785 -0.000000
v -0.382684 -0.923879 -0.000000
v -0.555570 -0.831469 -0.000000
v -0.707107 -0.707107 -0.000000
v -0.831470 -0.555570 -0.000000
v -0.923880 -0.382683 -0.000000
v -0.980785 -0.195090 -0.000000
v -1.000000 0.000001 -0.000000
v -0.980785 0.195091 -0.000000
v -0.923879 0.382684 -0.000000
v -0.831469 0.555571 -0.000000
v -0.707106 0.707107 -0.000000
v -0.555569 0.831470 -0.000000
v -0.382682 0.923880 -0.000000
v -0.195089 0.980785 -0.000000
v 0.000001 1.000000 0.000000
v 0.195092 0.980785 0.000000
v 0.382685 0.923879 0.000000
v 0.555571 0.831469 0.000000
v 0.707108 0.707106 0.000000
v 0.831471 0.555569 0.000000
v 0.923880 0.382682 0.000000
v 0.980786 0.195089 0.000000
v 1.136059 -0.000000 0.000000
v 1.114229 -0.221634 0.000000
v 1.049581 -0.434751 0.000000
v 0.944598 -0.631161 0.000000
v 0.803315 -0.803315 0.000000
v 0.631160 -0.944598 0.000000
v 0.434750 -1.049581 0.000000
v 0.221634 -1.114230 0.000000
v -0.000000 -1.136059 0.000000
v -0.221634 -1.114230 -0.000000
v -0.434751 -1.049581 -0.000000
v -0.631161 -0.944598 -0.000000
v -0.803315 -0.803315 -0.000000
v -0.944598 -0.631160 -0.000000
v -1.049582 -0.434750 -0.000000
v -1.114230 -0.221633 -0.000000
v -1.136059 0.000001 -0.000000
v -1.114229 0.221635 -0.000000
v -1.049581 0.434752 -0.000000
v -0.944598 0.631161 -0.000000
v -0.803314 0.803316 -0.000000
v -0.631159 0.944599 -0.000000
v -0.434750 1.049582 -0.000000
v -0.221633 1.114230 -0.000000
v 0.000001 1.136059 0.000000
v 0.221636 1.114229 0.000000
v 0.434752 1.049581 0.000000
v 0.631162 0.944597 0.000000
v 0.803316 0.803314 0.000000
v 0.944599 0.631159 0.000000
v 1.049582 0.434749 0.000000
v 1.114230 0.221632 0.000000
v 0.369784 -0.000000 1.620165
v -0.620165 -0.000000 1.369784
v -0.369784 -0.000000 1.620165
v 0.000000 -0.000000 1.989949
v 0.620165 -0.000000 1.369784
v -0.500762 -0.000000 1.250381
v 0.119403 -0.000000 1.870546
v -0.250381 -0.000000 1.500762
v 0.250381 -0.000000 1.500762
v -0.119403 -0.000000 1.870546
v 0.500762 -0.000000 1.250381
v 0.000000 -0.000000 1.751143
v 0.000000 -1.000000 -0.000000
v 0.000000 -0.980785 -0.195091
v 0.000000 -0.923879 -0.382684
v 0.000000 -0.831469 -0.555570
v -0.000000 -0.707107 -0.707107
v -0.000000 -0.555570 -0.831470
v -0.000000 -0.382683 -0.923880
v -0.000000 -0.195090 -0.980785
v -0.000000 0.000000 -1.000000
v -0.000000 0.195090 -0.980785
v -0.000000 0.382683 -0.923880
v -0.000000 0.555570 -0.831470
v -0.000000 0.707107 -0.707107
v -0.000000 0.831470 -0.555570
v -0.000000 0.923880 -0.382683
v -0.000000 0.980785 -0.195090
v -0.000000 1.000000 0.000001
v -0.000000 0.980785 0.195091
v -0.000000 0.923879 0.382684
v -0.000000 0.831469 0.555571
v 0.000000 0.707106 0.707107
v 0.000000 0.555569 0.831470
v 0.000000 0.382682 0.923880
v 0.000000 0.195089 0.980785
v 0.000000 -0.000001 1.000000
v 0.000000 -0.195092 0.980785
v 0.000000 -0.382685 0.923879
v 0.000000 -0.555571 0.831469
v 0.000000 -0.707108 0.707106
v 0.000000 -0.831470 0.555569
v 0.000000 -0.923880 0.382682
v 0.000000 -0.980786 0.195089
v 0.000000 -1.136059 -0.000000
v 0.000000 -1.114230 -0.221634
v 0.000000 -1.049581 -0.434751
v 0.000000 -0.944598 -0.631161
v -0.000000 -0.803315 -0.803315
v -0.000000 -0.631160 -0.944598
v -0.000000 -0.434751 -1.049581
v -0.000000 -0.221634 -1.114230
v -0.000000 0.000000 -1.136059
v -0.000000 0.221634 -1.114230
v -0.000000 0.434751 -1.049581
v -0.000000 0.631160 -0.944598
v -0.000000 0.803315 -0.803315
v -0.000000 0.944598 -0.631160
v -0.000000 1.049582 -0.434750
v -0.000000 1.114230 -0.221634
v -0.000000 1.136059 0.000001
v -0.000000 1.114230 0.221635
v -0.000000 1.049581 0.434752
v -0.000000 0.944598 0.631161
v 0.000000 0.803314 0.803316
v 0.000000 0.631160 0.944599
v 0.000000 0.434750 1.049582
v 0.000000 0.221633 1.114230
v 0.000000 -0.000001 1.136059
v 0.000000 -0.221635 1.114229
v 0.000000 -0.434752 1.049581
v 0.000000 -0.631162 0.944597
v 0.000000 -0.803316 0.803314
v 0.000000 -0.944599 0.631159
v 0.000000 -1.049582 0.434749
v 0.000000 -1.114230 0.221632
v 1.620165 0.000000 0.369784
v 1.369784 0.000000 -0.620165
v 1.620165 0.000000 -0.369784
v 1.989949 0.000000 0.000000
v 1.369784 0.000000 0.620165
v 1.250381 0.000000 -0.500762
v 1.870546 0.000000 0.119403
v 1.500762 0.000000 -0.250381
v 1.500762 0.000000 0.250381
v 1.870546 0.000000 -0.119403
v 1.250381 0.000000 0.500762
v 1.751143 0.000000 0.000000
v 0.000000 0.000000 -1.000000
v -0.195090 0.000000 -0.980785
v -0.382683 0.000000 -0.923880
v -0.555570 0.000000 -0.831470
v -0.707107 0.000000 -0.707107
v -0.831470 0.000000 -0.555570
v -0.923880 0.000000 -0.382683
v -0.980785 0.000000 -0.195090
v -1.000000 0.000000 -0.000000
v -0.980785 0.000000 0.195090
v -0.923880 0.000000 0.382683
v -0.831470 0.000000 0.555570
v -0.707107 0.000000 0.707107
v -0.555570 0.000000 0.831470
v -0.382683 0.000000 0.923880
v -0.195090 0.000000 0.980785
v 0.000000 0.000000 1.000000
v 0.195091 0.000000 0.980785
v 0.382684 0.000000 0.923879
v 0.555571 0.000000 0.831469
v 0.707107 0.000000 0.707106
v 0.831470 0.000000 0.555570
v 0.923880 0.000000 0.382683
v 0.980785 0.000000 0.195089
v 1.000000 0.000000 -0.000001
v 0.980785 0.000000 -0.195091
v 0.923879 0.000000 -0.382684
v 0.831469 0.000000 -0.555571
v 0.707106 0.000000 -0.707108
v 0.555569 0.000000 -0.831470
v 0.382682 0.000000 -0.923880
v 0.195089 0.000000 -0.980786
v 0.000000 0.000000 -1.136059
v -0.221634 0.000000 -1.114230
v -0.434751 0.000000 -1.049581
v -0.631160 0.000000 -0.944598
v -0.803315 0.000000 -0.803315
v -0.944598 0.000000 -0.631160
v -1.049581 0.000000 -0.434751
v -1.114230 0.000000 -0.221634
v -1.136059 0.000000 -0.000000
v -1.114230 0.000000 0.221634
v -1.049581 0.000000 0.434751
v -0.944598 0.000000 0.631160
v -0.803315 0.000000 0.803315
v -0.631160 0.000000 0.944598
v -0.434751 0.000000 1.049582
v -0.221634 0.000000 1.114230
v 0.000000 0.000000 1.136059
v 0.221635 0.000000 1.114230
v 0.434751 0.000000 1.049581
v 0.631161 0.000000 0.944598
v 0.803315 0.000000 0.803314
v 0.944599 0.000000 0.631160
v 1.049582 0.000000 0.434750
v 1.114230 0.000000 0.221633
v 1.136059 0.000000 -0.000001
v 1.114229 0.000000 -0.221635
v 1.049581 0.000000 -0.434752
v 0.944598 0.000000 -0.631162
v 0.803314 0.000000 -0.803316
v 0.631159 0.000000 -0.944599
v 0.434749 0.000000 -1.049582
v 0.221632 0.000000 -1.114230
vt 0.8902 0.5375
vt 0.8902 0.5002
vt 0.9684 0.5002
vt 0.9684 0.5375
vt 0.8120 0.5375
vt 0.8120 0.5002
vt 0.7747 0.5375
vt 0.7747 0.5002
vt 0.7747 0.6158
vt 0.8120 0.6158
vt 0.8120 0.6940
vt 0.7747 0.6940
vt 0.7283 0.4699
vt 0.7717 0.4699
vt 0.7746 0.4998
vt 0.7254 0.4998
vt 0.6859 0.0386
vt 0.6459 0.0552
vt 0.6317 0.0286
vt 0.6771 0.0098
vt 0.6859 0.4614
vt 0.6771 0.4902
vt 0.7283 0.0301
vt 0.7254 0.0002
vt 0.6459 0.4448
vt 0.6317 0.4714
vt 0.7717 0.0301
vt 0.7746 0.0002
vt 0.6098 0.4208
vt 0.5908 0.4440
vt 0.8141 0.0386
vt 0.8229 0.0098
vt 0.5792 0.3902
vt 0.5560 0.4092
vt 0.9699 0.2283
vt 0.9614 0.1859
vt 0.9902 0.1771
vt 0.9998 0.2254
vt 0.8541 0.0552
vt 0.8683 0.0286
vt 0.5552 0.3541
vt 0.5286 0.3683
vt 0.9699 0.2717
vt 0.9998 0.2746
vt 0.8902 0.0792
vt 0.9092 0.0560
vt 0.5386 0.3141
vt 0.5098 0.3229
vt 0.9614 0.3141
vt 0.9902 0.3229
vt 0.9208 0.1098
vt 0.9440 0.0908
vt 0.5301 0.2717
vt 0.5002 0.2746
vt 0.9448 0.3541
vt 0.9714 0.3683
vt 0.9448 0.1459
vt 0.9714 0.1317
vt 0.5301 0.2283
vt 0.5002 0.2254
vt 0.9208 0.3902
vt 0.9440 0.4092
vt 0.5386 0.1859
vt 0.5098 0.1771
vt 0.8902 0.4208
vt 0.9092 0.4440
vt 0.5552 0.1459
vt 0.5286 0.1317
vt 0.8541 0.4448
vt 0.8683 0.4714
vt 0.5792 0.1098
vt 0.5560 0.0908
vt 0.8141 0.4614
vt 0.8229 0.4902
vt 0.6098 0.0792
vt 0.5908 0.0560
vt 0.5819 0.7721
vt 0.5266 0.8274
vt 0.5002 0.8010
vt 0.5555 0.7457
vt 0.6372 0.7168
vt 0.6108 0.6904
vt 0.6372 0.6640
vt 0.6636 0.6904
vt 0.7189 0.7457
vt 0.7742 0.8010
vt 0.7479 0.8274
vt 0.6925 0.7721
vt 0.3902 0.4208
vt 0.4208 0.3902
vt 0.4440 0.4092
vt 0.4092 0.4440
vt 0.0552 0.1459
vt 0.0386 0.1859
vt 0.0098 0.1771
vt 0.0286 0.1317
vt 0.3541 0.4448
vt 0.3683 0.4714
vt 0.0792 0.1098
vt 0.0560 0.0908
vt 0.3141 0.4614
vt 0.3229 0.4902
vt 0.1098 0.0792
vt 0.0908 0.0560
vt 0.2717 0.4699
vt 0.2746 0.4998
vt 0.1459 0.0552
vt 0.1317 0.0286
vt 0.2283 0.4699
vt 0.2254 0.4998
vt 0.3902 0.0792
vt 0.3541 0.0552
vt 0.3683 0.0286
vt 0.4092 0.0560
vt 0.1859 0.0386
vt 0.1771 0.0098
vt 0.1859 0.4614
vt 0.1771 0.4902
vt 0.4208 0.1098
vt 0.4440 0.0908
vt 0.2283 0.0301
vt 0.2254 0.0002
vt 0.1459 0.4448
vt 0.1317 0.4714
vt 0.4448 0.1459
vt 0.4714 0.1317
vt 0.2717 0.0301
vt 0.2746 0.0002
vt 0.1098 0.4208
vt 0.0908 0.4440
vt 0.4614 0.1859
vt 0.4902 0.1771
vt 0.3141 0.0386
vt 0.3229 0.0098
vt 0.0792 0.3902
vt 0.0560 0.4092
vt 0.4699 0.2283
vt 0.4998 0.2254
vt 0.0552 0.3541
vt 0.0286 0.3683
vt 0.4699 0.2717
vt 0.4998 0.2746
vt 0.0386 0.3141
vt 0.0098 0.3229
vt 0.4614 0.3141
vt 0.4902 0.3229
vt 0.0301 0.2717
vt 0.0002 0.2746
vt 0.4448 0.3541
vt 0.4714 0.3683
vt 0.0301 0.2283
vt 0.0002 0.2254
vt 0.6925 0.6083
vt 0.7189 0.5819
vt 0.7742 0.6372
vt 0.7479 0.6636
vt 0.6372 0.5530
vt 0.6636 0.5266
vt 0.6108 0.5266
vt 0.6372 0.5002
vt 0.5555 0.5819
vt 0.5819 0.6083
vt 0.5266 0.6636
vt 0.5002 0.6372
vt 0.0552 0.6459
vt 0.0386 0.6859
vt 0.0098 0.6771
vt 0.0286 0.6317
vt 0.4699 0.7717
vt 0.4699 0.7283
vt 0.4998 0.7254
vt 0.4998 0.7746
vt 0.0792 0.6098
vt 0.0560 0.5908
vt 0.4614 0.8141
vt 0.4902 0.8229
vt 0.1098 0.5792
vt 0.0908 0.5560
vt 0.4448 0.8541
vt 0.4714 0.8683
vt 0.1459 0.5552
vt 0.1317 0.5286
vt 0.4208 0.8902
vt 0.4440 0.9092
vt 0.1859 0.5386
vt 0.1771 0.5098
vt 0.1859 0.9614
vt 0.2283 0.9699
vt 0.2254 0.9998
vt 0.1771 0.9902
vt 0.3902 0.9208
vt 0.4092 0.9440
vt 0.2283 0.5301
vt 0.2254 0.5002
vt 0.1459 0.9448
vt 0.1317 0.9714
vt 0.3541 0.9448
vt 0.3683 0.9714
vt 0.2717 0.5301
vt 0.2746 0.5002
vt 0.1098 0.9208
vt 0.0908 0.9440
vt 0.3141 0.9614
vt 0.3229 0.9902
vt 0.3141 0.5386
vt 0.3229 0.5098
vt 0.0792 0.8902
vt 0.0560 0.9092
vt 0.2717 0.9699
vt 0.2746 0.9998
vt 0.3541 0.5552
vt 0.3683 0.5286
vt 0.0552 0.8541
vt 0.0286 0.8683
vt 0.3902 0.5792
vt 0.4092 0.5560
vt 0.0386 0.8141
vt 0.0098 0.8229
vt 0.4208 0.6098
vt 0.4440 0.5908
vt 0.0301 0.7717
vt 0.0002 0.7746
vt 0.4448 0.6459
vt 0.4714 0.6317
vt 0.0301 0.7283
vt 0.0002 0.7254
vt 0.4614 0.6859
vt 0.4902 0.6771
vn 0.0000 -0.0000 -1.0000
vn 0.0000 1.0000 0.0000
vn 1.0000 0.0000 -0.0000
usemtl None
s off
f 8/1/1 3/2/1 2/3/1 6/4/1
f 12/5/1 10/6/1 3/2/1 8/1/1
f 12/5/1 7/7/1 4/8/1 10/6/1
f 1/9/1 9/10/1 11/11/1 5/12/1
f 7/7/1 12/5/1 9/10/1 1/9/1
f 23/13/1 22/14/1 54/15/1 55/16/1
f 37/17/1 36/18/1 68/19/1 69/20/1
f 24/21/1 23/13/1 55/16/1 56/22/1
f 38/23/1 37/17/1 69/20/1 70/24/1
f 25/25/1 24/21/1 56/22/1 57/26/1
f 39/27/1 38/23/1 70/24/1 71/28/1
f 26/29/1 25/25/1 57/26/1 58/30/1
f 40/31/1 39/27/1 71/28/1 72/32/1
f 27/33/1 26/29/1 58/30/1 59/34/1
f 14/35/1 13/36/1 45/37/1 46/38/1
f 41/39/1 40/31/1 72/32/1 73/40/1
f 28/41/1 27/33/1 59/34/1 60/42/1
f 15/43/1 14/35/1 46/38/1 47/44/1
f 42/45/1 41/39/1 73/40/1 74/46/1
f 29/47/1 28/41/1 60/42/1 61/48/1
f 16/49/1 15/43/1 47/44/1 48/50/1
f 43/51/1 42/45/1 74/46/1 75/52/1
f 30/53/1 29/47/1 61/48/1 62/54/1
f 17/55/1 16/49/1 48/50/1 49/56/1
f 44/57/1 43/51/1 75/52/1 76/58/1
f 31/59/1 30/53/1 62/54/1 63/60/1
f 18/61/1 17/55/1 49/56/1 50/62/1
f 13/36/1 44/57/1 76/58/1 45/37/1
f 32/63/1 31/59/1 63/60/1 64/64/1
f 19/65/1 18/61/1 50/62/1 51/66/1
f 33/67/1 32/63/1 64/64/1 65/68/1
f 20/69/1 19/65/1 51/66/1 52/70/1
f 34/71/1 33/67/1 65/68/1 66/72/1
f 21/73/1 20/69/1 52/70/1 53/74/1
f 35/75/1 34/71/1 66/72/1 67/76/1
f 22/14/1 21/73/1 53/74/1 54/15/1
f 36/18/1 35/75/1 67/76/1 68/19/1
f 84/77/2 82/78/2 78/79/2 79/80/2
f 88/81/2 84/77/2 79/80/2 86/82/2
f 88/81/2 86/82/2 80/83/2 83/84/2
f 77/85/2 81/86/2 87/87/2 85/88/2
f 83/84/2 77/85/2 85/88/2 88/81/2
f 99/89/3 98/90/3 130/91/3 131/92/3
f 113/93/3 112/94/3 144/95/3 145/96/3
f 100/97/3 99/89/3 131/92/3 132/98/3
f 114/99/3 113/93/3 145/96/3 146/100/3
f 101/101/3 100/97/3 132/98/3 133/102/3
f 115/103/3 114/99/3 146/100/3 147/104/3
f 102/105/3 101/101/3 133/102/3 134/106/3
f 116/107/3 115/103/3 147/104/3 148/108/3
f 103/109/3 102/105/3 134/106/3 135/110/3
f 90/111/3 89/112/3 121/113/3 122/114/3
f 117/115/3 116/107/3 148/108/3 149/116/3
f 104/117/3 103/109/3 135/110/3 136/118/3
f 91/119/3 90/111/3 122/114/3 123/120/3
f 118/121/3 117/115/3 149/116/3 150/122/3
f 105/123/3 104/117/3 136/118/3 137/124/3
f 92/125/3 91/119/3 123/120/3 124/126/3
f 119/127/3 118/121/3 150/122/3 151/128/3
f 106/129/3 105/123/3 137/124/3 138/130/3
f 93/131/3 92/125/3 124/126/3 125/132/3
f 120/133/3 119/127/3 151/128/3 152/134/3
f 107/135/3 106/129/3 138/130/3 139/136/3
f 94/137/3 93/131/3 125/132/3 126/138/3
f 89/112/3 120/133/3 152/134/3 121/113/3
f 108/139/3 107/135/3 139/136/3 140/140/3
f 95/141/3 94/137/3 126/138/3 127/142/3
f 109/143/3 108/139/3 140/140/3 141/144/3
f 96/145/3 95/141/3 127/142/3 128/146/3
f 110/147/3 109/143/3 141/144/3 142/148/3
f 97/149/3 96/145/3 128/146/3 129/150/3
f 111/151/3 110/147/3 142/148/3 143/152/3
f 98/90/3 97/149/3 129/150/3 130/91/3
f 112/94/3 111/151/3 143/152/3 144/95/3
f 160/153/2 155/154/2 154/155/2 158/156/2
f 164/157/2 162/158/2 155/154/2 160/153/2
f 164/157/2 159/159/2 156/160/2 162/158/2
f 153/161/2 161/162/2 163/163/2 157/164/2
f 159/159/2 164/157/2 161/162/2 153/161/2
f 175/165/2 174/166/2 206/167/2 207/168/2
f 189/169/2 188/170/2 220/171/2 221/172/2
f 176/173/2 175/165/2 207/168/2 208/174/2
f 190/175/2 189/169/2 221/172/2 222/176/2
f 177/177/2 176/173/2 208/174/2 209/178/2
f 191/179/2 190/175/2 222/176/2 223/180/2
f 178/181/2 177/177/2 209/178/2 210/182/2
f 192/183/2 191/179/2 223/180/2 224/184/2
f 179/185/2 178/181/2 210/182/2 211/186/2
f 166/187/2 165/188/2 197/189/2 198/190/2
f 193/191/2 192/183/2 224/184/2 225/192/2
f 180/193/2 179/185/2 211/186/2 212/194/2
f 167/195/2 166/187/2 198/190/2 199/196/2
f 194/197/2 193/191/2 225/192/2 226/198/2
f 181/199/2 180/193/2 212/194/2 213/200/2
f 168/201/2 167/195/2 199/196/2 200/202/2
f 195/203/2 194/197/2 226/198/2 227/204/2
f 182/205/2 181/199/2 213/200/2 214/206/2
f 169/207/2 168/201/2 200/202/2 201/208/2
f 196/209/2 195/203/2 227/204/2 228/210/2
f 183/211/2 182/205/2 214/206/2 215/212/2
f 170/213/2 169/207/2 201/208/2 202/214/2
f 165/188/2 196/209/2 228/210/2 197/189/2
f 184/215/2 183/211/2 215/212/2 216/216/2
f 171/217/2 170/213/2 202/214/2 203/218/2
f 185/219/2 184/215/2 216/216/2 217/220/2
f 172/221/2 171/217/2 203/218/2 204/222/2
f 186/223/2 185/219/2 217/220/2 218/224/2
f 173/225/2 172/221/2 204/222/2 205/226/2
f 187/227/2 186/223/2 218/224/2 219/228/2
f 174/166/2 173/225/2 205/226/2 206/167/2
f 188/170/2 187/227/2 219/228/2 220/171/2
