# Blender v2.78 (sub 0) OBJ File: ''
# www.blender.org
mtllib meep.mtl
o Cube
v -0.599201 -0.599201 1.370581
v -0.599201 0.599201 1.370581
v -1.000000 -1.000000 -1.000000
v -1.000000 1.000000 -1.000000
v 0.599201 -0.599201 1.370581
v 0.599201 0.599201 1.370581
v 1.000000 -1.000000 -1.000000
v 1.000000 1.000000 -1.000000
v -1.000000 -1.000000 1.000000
v -1.000000 1.000000 1.000000
v 1.000000 1.000000 1.000000
v 1.000000 -1.000000 1.000000
vt 0.6667 0.6667
vt 0.3333 0.6667
vt 0.3333 0.3333
vt 0.6667 0.3333
vt 0.3333 0.6667
vt 0.0000 0.6667
vt 0.0000 0.3333
vt 0.3333 0.3333
vt 0.0000 0.0000
vt 0.3333 0.0000
vt 0.4001 0.2665
vt 0.4001 0.0668
vt 0.5999 0.0668
vt 0.5999 0.2665
vt 1.0000 0.3333
vt 0.6667 0.3333
vt 0.6667 0.0000
vt 1.0000 0.0000
vt 0.3333 0.6667
vt 0.3333 1.0000
vt 0.0000 1.0000
vt 0.0000 0.6667
vt 0.6667 0.0000
vt 0.6667 0.3333
vt 0.3333 0.3333
vt 0.3333 0.0000
vn -1.0000 0.0000 0.0000
vn 0.0000 0.0000 -1.0000
vn 1.0000 0.0000 0.0000
vn 0.0000 0.0000 1.0000
vn 0.0000 -1.0000 0.0000
vn 0.0000 1.0000 0.0000
vn -0.6789 0.0000 0.7342
vn 0.6789 0.0000 0.7342
vn 0.0000 -0.6789 0.7342
vn 0.0000 0.6789 0.7342
usemtl Material
s off
f 9/1/1 10/2/1 4/3/1 3/4/1
f 3/5/2 4/6/2 8/7/2 7/8/2
f 7/8/3 8/7/3 11/9/3 12/10/3
f 5/11/4 6/12/4 2/13/4 1/14/4
f 3/15/5 7/16/5 12/17/5 9/18/5
f 8/19/6 4/20/6 10/21/6 11/22/6
f 1/14/7 2/13/7 10/23/7 9/24/7
f 6/12/8 5/11/8 12/25/8 11/26/8
f 5/11/9 1/14/9 9/24/9 12/25/9
f 2/13/10 6/12/10 11/26/10 10/23/10
