# Blender v2.78 (sub 0) OBJ File: 'scr.blend'
# www.blender.org
mtllib scr.mtl
o Computer_Screen_Cube
v -1.052814 -1.797606 0.668782
v -1.062739 -1.797606 0.337564
v 1.052814 -1.797606 0.668782
v 1.062739 -1.797606 0.337564
v -1.599412 -1.797606 0.337564
v -1.042888 -1.797606 1.000000
v -1.567307 -1.797606 0.668782
v -1.363605 -1.797606 0.911251
v 1.042888 -1.797606 1.000000
v 1.599412 -1.797606 0.337564
v 1.363605 -1.797606 0.911250
v 1.567307 -1.797606 0.668782
v -1.042888 -2.000000 1.000000
v -1.599412 -2.000000 0.337564
v -1.363605 -2.000000 0.911250
v -1.567307 -2.000000 0.668782
v 1.599412 -2.000000 0.337564
v 1.042888 -2.000000 1.000000
v 1.567307 -2.000000 0.668782
v 1.363605 -2.000000 0.911251
v -1.102820 -1.797606 -1.000000
v -1.410463 -1.797606 -0.741544
v 1.410463 -1.797606 -0.741544
v 1.102820 -1.797606 -1.000000
v -1.410463 -2.000000 -0.741544
v -1.102820 -2.000000 -1.000000
v 1.102820 -2.000000 -1.000000
v 1.410463 -2.000000 -0.741544
v -0.511487 0.573792 -0.207814
v -0.511487 0.632113 -0.035102
v -0.888513 0.632113 -0.035102
v -0.888513 0.573792 -0.207814
v -0.888513 -1.724556 0.760709
v -0.511487 -1.724556 0.760709
v -0.888513 -1.782878 0.587997
v -0.511487 -1.782878 0.587997
v 0.888513 0.573792 -0.207814
v 0.888513 0.632113 -0.035102
v 0.511487 0.632113 -0.035102
v 0.511487 0.573792 -0.207814
v 0.511487 -1.724556 0.760709
v 0.888513 -1.724556 0.760709
v 0.511487 -1.782878 0.587997
v 0.888513 -1.782878 0.587997
v -2.481017 -0.699305 -0.358183
v 2.481017 -0.699305 -0.358183
v -2.481017 1.752326 0.179436
v 2.481017 1.752326 0.179436
v -2.697792 2.068769 -0.251578
v -2.697792 -0.806349 -0.882064
v 2.697792 -0.806349 -0.882064
v 2.697792 2.068769 -0.251578
v -2.925060 2.285921 -0.180821
v -2.925060 -1.033183 -0.908668
v 2.925060 -1.033183 -0.908668
v 2.925060 2.285921 -0.180821
v -2.925060 2.245288 0.004469
v -2.925060 -1.073816 -0.723378
v 2.925060 -1.073816 -0.723378
v 2.925060 2.245288 0.004469
vt 0.7045 0.0624
vt 0.6541 0.0624
vt 0.6741 0.0387
vt 0.7054 0.0300
vt 0.6315 0.0982
vt 0.6510 0.0947
vt 0.6695 0.2003
vt 0.6500 0.2037
vt 0.9453 0.2003
vt 0.9152 0.2255
vt 0.9113 0.0947
vt 0.9638 0.0947
vt 0.6996 0.2255
vt 0.7035 0.0947
vt 0.9648 0.2037
vt 0.9833 0.0982
vt 0.6149 0.0036
vt 0.6344 0.0001
vt 0.6401 0.0322
vt 0.6206 0.0356
vt 0.6454 0.0627
vt 0.6259 0.0661
vt 0.9804 0.0001
vt 0.9999 0.0036
vt 0.9942 0.0356
vt 0.9748 0.0322
vt 0.9889 0.0661
vt 0.9694 0.0627
vt 0.9094 0.0102
vt 0.9094 0.0300
vt 0.7054 0.0102
vt 0.6996 0.2453
vt 0.6603 0.2453
vt 0.6603 0.2255
vt 0.9545 0.2255
vt 0.9545 0.2453
vt 0.9152 0.2453
vt 0.9607 0.0624
vt 0.9104 0.0624
vt 0.9407 0.0387
vt 0.8162 0.4590
vt 0.8340 0.4590
vt 0.8340 0.7022
vt 0.8162 0.7022
vt 0.7615 0.4590
vt 0.7793 0.4590
vt 0.7793 0.7022
vt 0.7615 0.7022
vt 0.7246 0.4590
vt 0.7246 0.7022
vt 0.6696 0.4590
vt 0.6875 0.4590
vt 0.6875 0.7022
vt 0.6696 0.7022
vt 0.6149 0.4590
vt 0.6328 0.4590
vt 0.6328 0.7022
vt 0.6149 0.7022
vt 0.7243 0.4590
vt 0.7243 0.7022
vt 0.0705 0.0508
vt 0.5442 0.0520
vt 0.5434 0.2942
vt 0.0697 0.2929
vt 0.0414 0.6763
vt 0.0414 0.3860
vt 0.5734 0.3860
vt 0.5734 0.6762
vt 0.6147 0.6988
vt 0.5959 0.6988
vt 0.5959 0.3634
vt 0.6147 0.3634
vt 0.0001 0.3635
vt 0.0189 0.3635
vt 0.0189 0.6989
vt 0.0001 0.6989
vt 0.5959 0.3447
vt 0.0189 0.3448
vt 0.0189 0.7176
vt 0.5959 0.7175
vt 0.0180 0.0002
vt 0.5951 0.0001
vn 0.0000 1.0000 0.0000
vn -0.9850 -0.0000 -0.1725
vn 0.9850 0.0000 -0.1725
vn -0.2667 -0.0000 0.9638
vn -0.7657 -0.0000 0.6432
vn -0.9953 -0.0000 0.0965
vn 0.2667 0.0000 0.9638
vn 0.7657 0.0000 0.6432
vn 0.9953 0.0000 0.0965
vn 0.0000 0.0000 1.0000
vn -0.6432 0.0000 -0.7657
vn 0.6432 0.0000 -0.7657
vn 0.0000 0.0000 -1.0000
vn 1.0000 -0.0000 0.0000
vn -1.0000 0.0000 0.0000
vn 0.0000 -0.3199 -0.9474
vn 0.0000 0.3199 0.9474
vn 0.0000 -0.2142 0.9768
vn 0.0000 0.2142 -0.9768
vn 0.0000 0.9768 0.2142
vn 0.0000 -0.9768 -0.2142
vn -0.0990 0.2131 -0.9720
vn 0.0000 0.1165 -0.9932
vn 0.0990 0.2131 -0.9720
vn 0.0000 0.3098 -0.9508
vn -0.5286 -0.1818 0.8292
vn 0.0000 -0.6981 0.7160
vn 0.5286 -0.1818 0.8292
vn 0.0000 0.3345 0.9424
usemtl None
s off
f 1/1/1 7/2/1 8/3/1 6/4/1
f 14/5/2 5/6/2 22/7/2 25/8/2
f 23/9/1 24/10/1 4/11/1 10/12/1
f 21/13/1 22/7/1 5/6/1 2/14/1
f 28/15/3 23/9/3 10/12/3 17/16/3
f 13/17/4 6/18/4 8/19/4 15/20/4
f 15/20/5 8/19/5 7/21/5 16/22/5
f 16/22/6 7/21/6 5/6/6 14/5/6
f 9/23/7 18/24/7 20/25/7 11/26/7
f 11/26/8 20/25/8 19/27/8 12/28/8
f 12/28/9 19/27/9 17/16/9 10/12/9
f 18/29/10 9/30/10 6/4/10 13/31/10
f 2/14/1 5/6/1 7/2/1 1/1/1
f 21/13/11 26/32/11 25/33/11 22/34/11
f 23/35/12 28/36/12 27/37/12 24/10/12
f 26/32/13 21/13/13 24/10/13 27/37/13
f 12/38/1 3/39/1 9/30/1 11/40/1
f 10/12/1 4/11/1 3/39/1 12/38/1
f 24/10/1 21/13/1 2/14/1 4/11/1
f 3/39/1 1/1/1 6/4/1 9/30/1
f 4/11/1 2/14/1 1/1/1 3/39/1
f 34/41/14 36/42/14 29/43/14 30/44/14
f 35/45/15 33/46/15 31/47/15 32/48/15
f 36/49/16 35/45/16 32/48/16 29/50/16
f 33/46/17 34/41/17 30/44/17 31/47/17
f 42/51/14 44/52/14 37/53/14 38/54/14
f 43/55/15 41/56/15 39/57/15 40/58/15
f 44/52/16 43/59/16 40/60/16 37/53/16
f 41/56/17 42/51/17 38/54/17 39/57/17
f 45/61/18 46/62/18 48/63/18 47/64/18
f 50/65/19 49/66/19 52/67/19 51/68/19
f 59/69/14 55/70/14 56/71/14 60/72/14
f 57/73/15 53/74/15 54/75/15 58/76/15
f 60/77/20 56/71/20 53/74/20 57/78/20
f 58/79/21 54/75/21 55/70/21 59/80/21
f 49/66/22 50/65/22 54/75/22 53/74/22
f 50/65/23 51/68/23 55/70/23 54/75/23
f 51/68/24 52/67/24 56/71/24 55/70/24
f 52/67/25 49/66/25 53/74/25 56/71/25
f 45/61/26 47/64/26 57/78/26 58/81/26
f 46/62/27 45/61/27 58/81/27 59/82/27
f 48/63/28 46/62/28 59/82/28 60/77/28
f 47/64/29 48/63/29 60/77/29 57/78/29
